<?xml version="1.0" encoding="UTF-8" standalone="no"?>
<!-- Created with Inkscape (http://www.inkscape.org/) -->

<svg
   xmlns:dc="http://purl.org/dc/elements/1.1/"
   xmlns:cc="http://creativecommons.org/ns#"
   xmlns:rdf="http://www.w3.org/1999/02/22-rdf-syntax-ns#"
   xmlns:svg="http://www.w3.org/2000/svg"
   xmlns="http://www.w3.org/2000/svg"
   version="1.1"
   width="351"
   height="336"
   id="svg2">
  <metadata
     id="metadata61">
    <rdf:RDF>
      <cc:Work
         rdf:about="">
        <dc:format>image/svg+xml</dc:format>
        <dc:type
           rdf:resource="http://purl.org/dc/dcmitype/StillImage" />
        <dc:title></dc:title>
      </cc:Work>
    </rdf:RDF>
  </metadata>
  <defs
     id="defs4">
    <filter
       width="1.5"
       height="1.5"
       color-interpolation-filters="sRGB"
       id="dsFilter">
      <feOffset
         id="feOffset7"
         dy="3"
         dx="3"
         in="SourceGraphic"
         result="offOut" />
      <feColorMatrix
         id="feColorMatrix9"
         values="0.2 0 0 0 0 0 0.2 0 0 0 0 0 0.2 0 0 0 0 0 1 0"
         type="matrix"
         in="offOut"
         result="matrixOut" />
      <feBlend
         in2="matrixOut"
         mode="normal"
         in="SourceGraphic"
         id="feBlend11" />
    </filter>
    <marker
       markerUnits="strokeWidth"
       refX="5"
       refY="5"
       markerWidth="8"
       markerHeight="7"
       orient="auto"
       viewBox="0 0 10 10"
       id="iPointer">
      <path
         d="M 10,0 10,10 0,5 z"
         id="path14" />
    </marker>
    <marker
       markerUnits="strokeWidth"
       refX="5"
       refY="5"
       markerWidth="8"
       markerHeight="7"
       orient="auto"
       viewBox="0 0 10 10"
       id="Pointer">
      <path
         d="M 0,0 10,5 0,10 z"
         id="path17" />
    </marker>
  </defs>
  <g
     id="boxes"
     style="fill:none;stroke:#000000;stroke-width:2">
    <g
       id="group0">
      <path
         d="m 4.5,8 90,0 0,22 q 0,10 -10,10 l -70,0 q -10,0 -10,-10 z"
         id="path0"
         style="fill:#ffffff;filter:url(#dsFilter)" />
      <text
         x="35.099998"
         y="28.799999"
         id="text0"
         style="font-size:15.19999981px;fill:#000000;stroke:none;font-family:'LMMono10, monospace'">REQ</text>
    </g>
    <g
       id="group2">
      <path
         d="m 130.5,8 90,0 0,22 q 0,10 -10,10 l -70,0 q -10,0 -10,-10 z"
         id="path2"
         style="fill:#ffffff;filter:url(#dsFilter)" />
      <text
         x="161.10001"
         y="28.799999"
         id="text2"
         style="font-size:15.19999981px;fill:#000000;stroke:none;font-family:'LMMono10, monospace'">REQ</text>
    </g>
    <g
       id="group4">
      <path
         d="m 256.5,8 90,0 0,22 q 0,10 -10,10 l -70,0 q -10,0 -10,-10 z"
         id="path4"
         style="fill:#ffffff;filter:url(#dsFilter)" />
      <text
         x="287.10001"
         y="28.799999"
         id="text4"
         style="font-size:15.19999981px;fill:#000000;stroke:none;font-family:'LMMono10, monospace'">REQ</text>
    </g>
    <g
       id="group18">
      <path
         d="m 121.5,114 q 0,-10 10,-10 l 88,0 q 10,0 10,10 l 0,76 q 0,10 -10,10 l -88,0 q -10,0 -10,-10 z"
         id="path18"
         style="fill:#ffffff;filter:url(#dsFilter)" />
      <text
         x="143.10001"
         y="124.8"
         id="text18"
         style="font-size:15.19999981px;fill:#000000;stroke:none;font-family:'LMMono10, monospace'">ROUTER</text>
      <text
         x="152.10001"
         y="156.8"
         id="text32"
         style="font-size:15.19999981px;fill:#000000;stroke:none;font-family:'LMMono10, monospace'">コード</text>
      <text
         x="143.10001"
         y="188.8"
         id="text34"
         style="font-size:15.19999981px;fill:#000000;stroke:none;font-family:'LMMono10, monospace'">DEALER</text>
    </g>
    <g
       id="group31">
      <path
         d="m 4.5,290 q 0,-10 10,-10 l 70,0 q 10,0 10,10 l 0,22 -90,0 z"
         id="path31"
         style="fill:#ffffff;filter:url(#dsFilter)" />
      <text
         x="35.099998"
         y="300.79999"
         id="text31"
         style="font-size:15.19999981px;fill:#000000;stroke:none;font-family:'LMMono10, monospace'">REP</text>
    </g>
    <g
       id="group33">
      <path
         d="m 130.5,290 q 0,-10 10,-10 l 70,0 q 10,0 10,10 l 0,22 -90,0 z"
         id="path33"
         style="fill:#ffffff;filter:url(#dsFilter)" />
      <text
         x="161.10001"
         y="300.79999"
         id="text33"
         style="font-size:15.19999981px;fill:#000000;stroke:none;font-family:'LMMono10, monospace'">REP</text>
    </g>
    <g
       id="group35">
      <path
         d="m 256.5,290 q 0,-10 10,-10 l 70,0 q 10,0 10,10 l 0,22 -90,0 z"
         id="path35"
         style="fill:#ffffff;filter:url(#dsFilter)" />
      <text
         x="287.10001"
         y="300.79999"
         id="text35"
         style="font-size:15.19999981px;fill:#000000;stroke:none;font-family:'LMMono10, monospace'">REP</text>
    </g>
  </g>
  <g
     id="lines"
     style="fill:none;stroke:#000000;stroke-width:2">
    <g
       id="group150">
      <path
         d="m 49.5,40 0,22 q 0,10 10,10 l 116,0 116,0 q 10,0 10,-10 l 0,-22"
         id="path150" />
    </g>
    <g
       id="group165">
      <path
         d="m 49.5,264 0,-22 q 0,-10 10,-10 l 116,0 116,0 q 10,0 10,10 l 0,22"
         id="path165"
         style="marker-start:url(#iPointer);marker-end:url(#Pointer)" />
    </g>
    <g
       id="group325">
      <path
         d="m 121.5,136 108,0"
         id="path325" />
    </g>
    <g
       id="group328">
      <path
         d="m 121.5,168 108,0"
         id="path328" />
    </g>
    <g
       id="group447">
      <path
         d="m 175.5,40 0,32 0,32"
         id="path447" />
    </g>
    <g
       id="group458">
      <path
         d="m 175.5,200 0,32 0,32"
         id="path458"
         style="marker-end:url(#Pointer)" />
    </g>
  </g>
  <g
     id="text"
     style="font-size:15.19999981px;fill:#000000;font-family:'LMMono10, monospace'" />
</svg>
