<?xml version="1.0" encoding="UTF-8" standalone="no"?>
<!-- Created with Inkscape (http://www.inkscape.org/) -->

<svg
   xmlns:dc="http://purl.org/dc/elements/1.1/"
   xmlns:cc="http://creativecommons.org/ns#"
   xmlns:rdf="http://www.w3.org/1999/02/22-rdf-syntax-ns#"
   xmlns:svg="http://www.w3.org/2000/svg"
   xmlns="http://www.w3.org/2000/svg"
   version="1.1"
   width="450"
   height="528"
   id="svg2">
  <metadata
     id="metadata117">
    <rdf:RDF>
      <cc:Work
         rdf:about="">
        <dc:format>image/svg+xml</dc:format>
        <dc:type
           rdf:resource="http://purl.org/dc/dcmitype/StillImage" />
        <dc:title></dc:title>
      </cc:Work>
    </rdf:RDF>
  </metadata>
  <defs
     id="defs4">
    <filter
       width="1.5"
       height="1.5"
       color-interpolation-filters="sRGB"
       id="dsFilter">
      <feOffset
         id="feOffset7"
         dy="3"
         dx="3"
         in="SourceGraphic"
         result="offOut" />
      <feColorMatrix
         id="feColorMatrix9"
         values="0.2 0 0 0 0 0 0.2 0 0 0 0 0 0.2 0 0 0 0 0 1 0"
         type="matrix"
         in="offOut"
         result="matrixOut" />
      <feBlend
         in2="matrixOut"
         mode="normal"
         in="SourceGraphic"
         id="feBlend11" />
    </filter>
    <marker
       markerUnits="strokeWidth"
       refX="5"
       refY="5"
       markerWidth="8"
       markerHeight="7"
       orient="auto"
       viewBox="0 0 10 10"
       id="iPointer">
      <path
         d="M 10,0 10,10 0,5 z"
         id="path14" />
    </marker>
    <marker
       markerUnits="strokeWidth"
       refX="5"
       refY="5"
       markerWidth="8"
       markerHeight="7"
       orient="auto"
       viewBox="0 0 10 10"
       id="Pointer">
      <path
         d="M 0,0 10,5 0,10 z"
         id="path17" />
    </marker>
  </defs>
  <g
     id="boxes"
     style="fill:none;stroke:#000000;stroke-width:2">
    <g
       id="group0">
      <path
         d="m 121.5,8 126,0 0,54 q 0,10 -10,10 l -106,0 q -10,0 -10,-10 z"
         id="path0"
         style="fill:#ffffff;filter:url(#dsFilter)" />
      <text
         x="131.10001"
         y="28.799999"
         id="text0"
         style="font-size:15.19999981px;fill:#000000;stroke:none;font-family:'LMMono10, monospace'">ベンチレーター</text>
      <text
         x="161.10001"
         y="60.799999"
         id="text23"
         style="font-size:15.19999981px;fill:#000000;stroke:none;font-family:'LMMono10, monospace'">PUSH</text>
    </g>
    <g
       id="group14">
      <path
         d="m 4.5,210 q 0,-10 10,-10 l 97,0 q 10,0 10,10 l 0,76 q 0,10 -10,10 l -97,0 q -10,0 -10,-10 z"
         id="path26"
         style="fill:#ffffff;filter:url(#dsFilter)" />
      <text
         x="17.1"
         y="220.8"
         id="text14"
         style="font-size:15.19999981px;fill:#000000;stroke:none;font-family:'LMMono10, monospace'">PULL</text>
      <text
         x="80.099998"
         y="220.8"
         id="text29"
         style="font-size:15.19999981px;fill:#000000;stroke:none;font-family:'LMMono10, monospace'">SUB</text>
      <text
         x="35.099998"
         y="252.8"
         id="text31"
         style="font-size:15.19999981px;fill:#000000;stroke:none;font-family:'LMMono10, monospace'">ワーカー</text>
      <text
         x="44.099998"
         y="284.79999"
         id="text33"
         style="font-size:15.19999981px;fill:#000000;stroke:none;font-family:'LMMono10, monospace'">PUSH</text>
    </g>
    <g
       id="group17">
      <path
         d="m 148.5,210 q 0,-10 10,-10 l 97,0 q 10,0 10,10 l 0,76 q 0,10 -10,10 l -97,0 q -10,0 -10,-10 z"
         id="path36"
         style="fill:#ffffff;filter:url(#dsFilter)" />
      <text
         x="161.10001"
         y="220.8"
         id="text17"
         style="font-size:15.19999981px;fill:#000000;stroke:none;font-family:'LMMono10, monospace'">PULL</text>
      <text
         x="224.10001"
         y="220.8"
         id="text39"
         style="font-size:15.19999981px;fill:#000000;stroke:none;font-family:'LMMono10, monospace'">SUB</text>
      <text
         x="179.10001"
         y="252.8"
         id="text41"
         style="font-size:15.19999981px;fill:#000000;stroke:none;font-family:'LMMono10, monospace'">ワーカー</text>
      <text
         x="188.10001"
         y="284.79999"
         id="text43"
         style="font-size:15.19999981px;fill:#000000;stroke:none;font-family:'LMMono10, monospace'">PUSH</text>
    </g>
    <g
       id="group20">
      <path
         d="m 292.5,210 q 0,-10 10,-10 l 97,0 q 10,0 10,10 l 0,76 q 0,10 -10,10 l -97,0 q -10,0 -10,-10 z"
         id="path20"
         style="fill:#ffffff;filter:url(#dsFilter)" />
      <text
         x="305.10001"
         y="220.8"
         id="text20"
         style="font-size:15.19999981px;fill:#000000;stroke:none;font-family:'LMMono10, monospace'">PULL</text>
      <text
         x="368.10001"
         y="220.8"
         id="text48"
         style="font-size:15.19999981px;fill:#000000;stroke:none;font-family:'LMMono10, monospace'">SUB</text>
      <text
         x="323.10001"
         y="252.8"
         id="text50"
         style="font-size:15.19999981px;fill:#000000;stroke:none;font-family:'LMMono10, monospace'">ワーカー</text>
      <text
         x="332.10001"
         y="284.79999"
         id="text52"
         style="font-size:15.19999981px;fill:#000000;stroke:none;font-family:'LMMono10, monospace'">PUSH</text>
    </g>
    <g
       id="group50">
      <path
         d="m 139.5,418 q 0,-10 10,-10 l 106,0 q 10,0 10,10 l 0,76 q 0,10 -10,10 l -106,0 q -10,0 -10,-10 z"
         id="path50"
         style="fill:#ffffff;filter:url(#dsFilter)" />
      <text
         x="179.10001"
         y="428.79999"
         id="text56"
         style="font-size:15.19999981px;fill:#000000;stroke:none;font-family:'LMMono10, monospace'">PULL</text>
      <text
         x="179.10001"
         y="460.79999"
         id="text58"
         style="font-size:15.19999981px;fill:#000000;stroke:none;font-family:'LMMono10, monospace'">シンク</text>
      <text
         x="188.10001"
         y="492.79999"
         id="text60"
         style="font-size:15.19999981px;fill:#000000;stroke:none;font-family:'LMMono10, monospace'">PUB</text>
    </g>
  </g>
  <g
     id="lines"
     style="fill:none;stroke:#000000;stroke-width:2">
    <g
       id="group74">
      <path
         d="m 4.5,232 63,0 54,0"
         id="path74" />
    </g>
    <g
       id="group77">
      <path
         d="m 4.5,264 117,0"
         id="path77" />
    </g>
    <g
       id="group205">
      <path
         d="m 40.5,184 0,-54 q 0,-10 10,-10 l 134,0 134,0 q 10,0 10,10 l 0,54"
         id="path205"
         style="marker-start:url(#iPointer);marker-end:url(#Pointer)" />
    </g>
    <g
       id="group278">
      <path
         d="m 58.5,296 0,22 q 0,10 10,10 l 134,0 134,0 q 10,0 10,-10 l 0,-22"
         id="path278" />
    </g>
    <g
       id="group306">
      <path
         d="m 67.5,200 0,32"
         id="path306" />
    </g>
    <g
       id="group405">
      <path
         d="m 94.5,184 0,-22 q 0,-10 10,-10 l 80,0"
         id="path405"
         style="stroke-dasharray:5, 5;marker-start:url(#iPointer)" />
    </g>
    <g
       id="group495">
      <path
         d="m 121.5,40 126,0"
         id="path495" />
    </g>
    <g
       id="group587">
      <path
         d="m 139.5,440 126,0"
         id="path587" />
    </g>
    <g
       id="group590">
      <path
         d="m 139.5,472 126,0 0,16 0,6 q 0,10 -10,10"
         id="path590" />
    </g>
    <g
       id="group609">
      <path
         d="m 148.5,232 63,0 54,0"
         id="path609" />
    </g>
    <g
       id="group612">
      <path
         d="m 148.5,264 117,0"
         id="path612" />
    </g>
    <g
       id="group735">
      <path
         d="m 184.5,104 0,16 0,32"
         id="path735" />
    </g>
    <g
       id="group740">
      <path
         d="m 184.5,184 0,-32"
         id="path740"
         style="marker-start:url(#iPointer)" />
    </g>
    <g
       id="group771">
      <path
         d="m 193.5,152 45,0 90,0"
         id="path771"
         style="stroke-dasharray:5, 5" />
    </g>
    <g
       id="group813">
      <path
         d="m 202.5,296 0,32 0,32"
         id="path813" />
    </g>
    <g
       id="group820">
      <path
         d="m 202.5,392 0,-32"
         id="path820"
         style="marker-start:url(#iPointer)" />
    </g>
    <g
       id="group841">
      <path
         d="m 211.5,200 0,32"
         id="path841" />
    </g>
    <g
       id="group938">
      <path
         d="m 238.5,152 0,32"
         id="path938"
         style="marker-end:url(#Pointer)" />
    </g>
    <g
       id="group1059">
      <path
         d="m 265.5,488 45,0"
         id="path1059"
         style="stroke-dasharray:5, 5" />
    </g>
    <g
       id="group1143">
      <path
         d="m 292.5,232 63,0 54,0"
         id="path1143" />
    </g>
    <g
       id="group1146">
      <path
         d="m 292.5,264 117,0"
         id="path1146" />
    </g>
    <g
       id="group1305">
      <path
         d="m 337.5,152 45,0 53,0 q 10,0 10,10 l 0,316 q 0,10 -10,10 l -35,0"
         id="path1305"
         style="stroke-dasharray:5, 5" />
    </g>
    <g
       id="group1374">
      <path
         d="m 355.5,200 0,32"
         id="path1374" />
    </g>
    <g
       id="group1471">
      <path
         d="m 382.5,152 0,32"
         id="path1471"
         style="marker-end:url(#Pointer)" />
    </g>
  </g>
  <g
     id="text"
     style="font-size:15.19999981px;fill:#000000;font-family:'LMMono10, monospace'">
    <text
       x="161.10001"
       y="92.800003"
       id="text2"
       style="fill:#000000">tasks</text>
    <text
       x="206.10001"
       y="364.79999"
       id="text15"
       style="fill:#000000">結果</text>
    <text
       x="305.10001"
       y="492.79999"
       id="text19"
       style="fill:#000000">KILLシグナル</text>
  </g>
</svg>
