<?xml version="1.0" encoding="UTF-8" standalone="no"?>
<!-- Created with Inkscape (http://www.inkscape.org/) -->

<svg
   xmlns:dc="http://purl.org/dc/elements/1.1/"
   xmlns:cc="http://creativecommons.org/ns#"
   xmlns:rdf="http://www.w3.org/1999/02/22-rdf-syntax-ns#"
   xmlns:svg="http://www.w3.org/2000/svg"
   xmlns="http://www.w3.org/2000/svg"
   version="1.1"
   width="432"
   height="304"
   id="svg2">
  <metadata
     id="metadata62">
    <rdf:RDF>
      <cc:Work
         rdf:about="">
        <dc:format>image/svg+xml</dc:format>
        <dc:type
           rdf:resource="http://purl.org/dc/dcmitype/StillImage" />
        <dc:title></dc:title>
      </cc:Work>
    </rdf:RDF>
  </metadata>
  <defs
     id="defs4">
    <filter
       width="1.5"
       height="1.5"
       color-interpolation-filters="sRGB"
       id="dsFilter">
      <feOffset
         id="feOffset7"
         dy="3"
         dx="3"
         in="SourceGraphic"
         result="offOut" />
      <feColorMatrix
         id="feColorMatrix9"
         values="0.2 0 0 0 0 0 0.2 0 0 0 0 0 0.2 0 0 0 0 0 1 0"
         type="matrix"
         in="offOut"
         result="matrixOut" />
      <feBlend
         in2="matrixOut"
         mode="normal"
         in="SourceGraphic"
         id="feBlend11" />
    </filter>
    <marker
       markerUnits="strokeWidth"
       refX="5"
       refY="5"
       markerWidth="8"
       markerHeight="7"
       orient="auto"
       viewBox="0 0 10 10"
       id="iPointer">
      <path
         d="M 10,0 10,10 0,5 z"
         id="path14" />
    </marker>
    <marker
       markerUnits="strokeWidth"
       refX="5"
       refY="5"
       markerWidth="8"
       markerHeight="7"
       orient="auto"
       viewBox="0 0 10 10"
       id="Pointer">
      <path
         d="M 0,0 10,5 0,10 z"
         id="path17" />
    </marker>
  </defs>
  <g
     id="boxes"
     style="fill:none;stroke:#000000;stroke-width:2">
    <g
       id="group0">
      <path
         d="m 157.5,8 108,0 0,54 q 0,10 -10,10 l -88,0 q -10,0 -10,-10 z"
         id="path0"
         style="fill:#ffffff;filter:url(#dsFilter)" />
      <text
         x="161.08307"
         y="28.799999"
         id="text0"
         style="font-size:14px;fill:#000000;stroke:none;font-family:'LMMono10, monospace'">パブリッシャー</text>
      <text
         x="197.10001"
         y="60.799999"
         id="text23"
         style="font-size:15.19999981px;fill:#000000;stroke:none;font-family:'LMMono10, monospace'">PUB</text>
    </g>
    <g
       id="group12">
      <path
         d="m 4.5,226 q 0,-10 10,-10 l 97,0 q 10,0 10,10 l 0,54 -117,0 z"
         id="path12"
         style="fill:#ffffff;filter:url(#dsFilter)" />
      <text
         x="44.099998"
         y="236.8"
         id="text12"
         style="font-size:15.19999981px;fill:#000000;stroke:none;font-family:'LMMono10, monospace'">SUB</text>
      <text
         x="6.7949157"
         y="267.51184"
         id="text28"
         style="font-size:14px;fill:#000000;stroke:none;font-family:'LMMono10, monospace'">サブスクライバー</text>
    </g>
    <g
       id="group14">
      <path
         d="m 157.5,226 q 0,-10 10,-10 l 97,0 q 10,0 10,10 l 0,54 -117,0 z"
         id="path31"
         style="fill:#ffffff;filter:url(#dsFilter)" />
      <text
         x="197.10001"
         y="236.8"
         id="text14"
         style="font-size:15.19999981px;fill:#000000;stroke:none;font-family:'LMMono10, monospace'">SUB</text>
      <text
         x="159.79492"
         y="267.51184"
         id="text34"
         style="font-size:14px;fill:#000000;stroke:none;font-family:'LMMono10, monospace'">サブスクライバー</text>
    </g>
    <g
       id="group16">
      <path
         d="m 310.5,226 q 0,-10 10,-10 l 97,0 q 10,0 10,10 l 0,54 -117,0 z"
         id="path16"
         style="fill:#ffffff;filter:url(#dsFilter)" />
      <text
         x="350.10001"
         y="236.8"
         id="text16"
         style="font-size:15.19999981px;fill:#000000;stroke:none;font-family:'LMMono10, monospace'">SUB</text>
      <text
         x="314.08307"
         y="267.51184"
         id="text39"
         style="font-size:14px;fill:#000000;stroke:none;font-family:'LMMono10, monospace'">サブスクライバー</text>
    </g>
  </g>
  <g
     id="lines"
     style="fill:none;stroke:#000000;stroke-width:2">
    <g
       id="group45">
      <path
         d="m 4.5,248 117,0"
         id="path45" />
    </g>
    <g
       id="group156">
      <path
         d="m 58.5,184 0,-22 c 0,-6.66667 3.333333,-10 10,-10 l 143,0 143,0 c 6.66667,0 10,3.33333 10,10 l 0,23.83051"
         id="path156" />
    </g>
    <g
       id="group356">
      <path
         d="m 157.5,40 108,0"
         id="path356" />
    </g>
    <g
       id="group370">
      <path
         d="m 157.5,248 117,0"
         id="path370" />
    </g>
    <g
       id="group477">
      <path
         d="m 211.5,120 0,25.89382 0,38.84075"
         id="path477"
         style="stroke-width:1.79909098" />
    </g>
    <g
       id="group694">
      <path
         d="m 310.5,248 117,0"
         id="path694" />
    </g>
  </g>
  <g
     id="text"
     style="font-size:15.19999981px;fill:#000000;font-family:'LMMono10, monospace'">
    <text
       x="188.10001"
       y="92.800003"
       id="text2"
       style="fill:#000000">bind</text>
    <text
       x="98.099998"
       y="108.8"
       id="text3"
       style="fill:#000000">tcp://192.168.55.210:5556</text>
    <text
       x="42.845764"
       y="202.8678"
       id="text4"
       style="fill:#000000">接続</text>
    <text
       x="195.82883"
       y="202.22374"
       id="text5"
       style="fill:#000000">接続</text>
    <text
       x="350.76102"
       y="202.22372"
       id="text6"
       style="fill:#000000">接続</text>
  </g>
</svg>
