<?xml version="1.0" encoding="UTF-8" standalone="no"?>
<!-- Created with Inkscape (http://www.inkscape.org/) -->

<svg
   xmlns:dc="http://purl.org/dc/elements/1.1/"
   xmlns:cc="http://creativecommons.org/ns#"
   xmlns:rdf="http://www.w3.org/1999/02/22-rdf-syntax-ns#"
   xmlns:svg="http://www.w3.org/2000/svg"
   xmlns="http://www.w3.org/2000/svg"
   version="1.1"
   width="351"
   height="432"
   id="svg2">
  <metadata
     id="metadata93">
    <rdf:RDF>
      <cc:Work
         rdf:about="">
        <dc:format>image/svg+xml</dc:format>
        <dc:type
           rdf:resource="http://purl.org/dc/dcmitype/StillImage" />
        <dc:title></dc:title>
      </cc:Work>
    </rdf:RDF>
  </metadata>
  <defs
     id="defs4">
    <filter
       width="1.5"
       height="1.5"
       color-interpolation-filters="sRGB"
       id="dsFilter">
      <feOffset
         id="feOffset7"
         dy="3"
         dx="3"
         in="SourceGraphic"
         result="offOut" />
      <feColorMatrix
         id="feColorMatrix9"
         values="0.2 0 0 0 0 0 0.2 0 0 0 0 0 0.2 0 0 0 0 0 1 0"
         type="matrix"
         in="offOut"
         result="matrixOut" />
      <feBlend
         in2="matrixOut"
         mode="normal"
         in="SourceGraphic"
         id="feBlend11" />
    </filter>
    <marker
       markerUnits="strokeWidth"
       refX="5"
       refY="5"
       markerWidth="8"
       markerHeight="7"
       orient="auto"
       viewBox="0 0 10 10"
       id="iPointer">
      <path
         d="M 10,0 10,10 0,5 z"
         id="path14" />
    </marker>
    <marker
       markerUnits="strokeWidth"
       refX="5"
       refY="5"
       markerWidth="8"
       markerHeight="7"
       orient="auto"
       viewBox="0 0 10 10"
       id="Pointer">
      <path
         d="M 0,0 10,5 0,10 z"
         id="path17" />
    </marker>
  </defs>
  <g
     id="boxes"
     style="fill:none;stroke:#000000;stroke-width:2">
    <g
       id="group0">
      <path
         d="m 4.5,8 90,0 0,54 q 0,10 -10,10 l -70,0 q -10,0 -10,-10 z"
         id="path0"
         style="fill:#ffffff;filter:url(#dsFilter)" />
      <text
         x="17.1"
         y="28.799999"
         id="text0"
         style="font-size:15.19999981px;fill:#000000;stroke:none;font-family:'LMMono10, monospace'"></text>
      <text
         x="5.1000004"
         y="28.799999"
         id="text3070"
         style="font-size:15.19999981px;fill:#000000;stroke:none;font-family:'LMMono10, monospace'">クライアント</text>
      <text
         x="35.099998"
         y="60.799999"
         id="text23"
         style="font-size:15.19999981px;fill:#000000;stroke:none;font-family:'LMMono10, monospace'">REQ</text>
    </g>
    <g
       id="group2">
      <path
         d="m 130.5,8 90,0 0,54 q 0,10 -10,10 l -70,0 q -10,0 -10,-10 z"
         id="path2"
         style="fill:#ffffff;filter:url(#dsFilter)" />
      <text
         x="131.10001"
         y="28.799999"
         id="text2"
         style="font-size:15.19999981px;fill:#000000;stroke:none;font-family:'LMMono10, monospace'">クライアント</text>
      <text
         x="161.10001"
         y="60.799999"
         id="text28"
         style="font-size:15.19999981px;fill:#000000;stroke:none;font-family:'LMMono10, monospace'">REQ</text>
    </g>
    <g
       id="group4">
      <path
         d="m 256.5,8 90,0 0,54 q 0,10 -10,10 l -70,0 q -10,0 -10,-10 z"
         id="path4"
         style="fill:#ffffff;filter:url(#dsFilter)" />
      <text
         x="257.10001"
         y="28.799999"
         id="text4"
         style="font-size:15.19999981px;fill:#000000;stroke:none;font-family:'LMMono10, monospace'">クライアント</text>
      <text
         x="287.10001"
         y="60.799999"
         id="text33"
         style="font-size:15.19999981px;fill:#000000;stroke:none;font-family:'LMMono10, monospace'">REQ</text>
    </g>
    <g
       id="group24">
      <path
         d="m 121.5,162 q 0,-10 10,-10 l 88,0 q 10,0 10,10 l 0,76 q 0,10 -10,10 l -88,0 q -10,0 -10,-10 z"
         id="path24"
         style="fill:#ffffff;filter:url(#dsFilter)" />
      <text
         x="143.10001"
         y="172.8"
         id="text24"
         style="font-size:15.19999981px;fill:#000000;stroke:none;font-family:'LMMono10, monospace'">ROUTER</text>
      <text
         x="139.10001"
         y="204.8"
         id="text38"
         style="font-size:15.19999981px;fill:#000000;stroke:none;font-family:'LMMono10, monospace'">ブローカー</text>
      <text
         x="143.10001"
         y="236.8"
         id="text40"
         style="font-size:15.19999981px;fill:#000000;stroke:none;font-family:'LMMono10, monospace'">DEALER</text>
    </g>
    <g
       id="group36">
      <path
         d="m 4.5,338 q 0,-10 10,-10 l 70,0 q 10,0 10,10 l 0,70 -90,0 z"
         id="path36"
         style="fill:#ffffff;filter:url(#dsFilter)" />
      <text
         x="35.099998"
         y="348.79999"
         id="text36"
         style="font-size:15.19999981px;fill:#000000;stroke:none;font-family:'LMMono10, monospace'">REP</text>
      <text
         x="15.1"
         y="386.79999"
         id="text45"
         style="font-size:15.19999981px;fill:#000000;stroke:none;font-family:'LMMono10, monospace'">サービスA</text>
    </g>
    <g
       id="group38">
      <path
         d="m 130.5,338 q 0,-10 10,-10 l 70,0 q 10,0 10,10 l 0,70 -90,0 z"
         id="path38"
         style="fill:#ffffff;filter:url(#dsFilter)" />
      <text
         x="161.10001"
         y="348.79999"
         id="text51"
         style="font-size:15.19999981px;fill:#000000;stroke:none;font-family:'LMMono10, monospace'">REP</text>
      <text
         x="141.10001"
         y="386.79999"
         id="text53"
         style="font-size:15.19999981px;fill:#000000;stroke:none;font-family:'LMMono10, monospace'">サービスB</text>
    </g>
    <g
       id="group40">
      <path
         d="m 256.5,338 q 0,-10 10,-10 l 70,0 q 10,0 10,10 l 0,70 -90,0 z"
         id="path40"
         style="fill:#ffffff;filter:url(#dsFilter)" />
      <text
         x="287.10001"
         y="348.79999"
         id="text59"
         style="font-size:15.19999981px;fill:#000000;stroke:none;font-family:'LMMono10, monospace'">REP</text>
      <text
         x="267.10001"
         y="386.79999"
         id="text61"
         style="font-size:15.19999981px;fill:#000000;stroke:none;font-family:'LMMono10, monospace'">サービスC</text>
    </g>
  </g>
  <g
     id="lines"
     style="fill:none;stroke:#000000;stroke-width:2">
    <g
       id="group56">
      <path
         d="m 4.5,40 90,0"
         id="path56" />
    </g>
    <g
       id="group77">
      <path
         d="m 4.5,360 90,0"
         id="path77" />
    </g>
    <g
       id="group195">
      <path
         d="m 49.5,72 0,22 q 0,10 10,10 l 116,0 116,0 q 10,0 10,-10 l 0,-22"
         id="path195" />
    </g>
    <g
       id="group211">
      <path
         d="m 49.5,312 0,-22 q 0,-10 10,-10 l 116,0 116,0 q 10,0 10,10 l 0,22"
         id="path211"
         style="marker-start:url(#iPointer);marker-end:url(#Pointer)" />
    </g>
    <g
       id="group419">
      <path
         d="m 121.5,184 108,0"
         id="path419" />
    </g>
    <g
       id="group422">
      <path
         d="m 121.5,216 108,0"
         id="path422" />
    </g>
    <g
       id="group439">
      <path
         d="m 130.5,40 90,0"
         id="path439" />
    </g>
    <g
       id="group460">
      <path
         d="m 130.5,360 90,0"
         id="path460" />
    </g>
    <g
       id="group578">
      <path
         d="m 175.5,72 0,32 0,32"
         id="path578"
         style="marker-end:url(#Pointer)" />
    </g>
    <g
       id="group590">
      <path
         d="m 175.5,248 0,32 0,32"
         id="path590"
         style="marker-end:url(#Pointer)" />
    </g>
    <g
       id="group821">
      <path
         d="m 256.5,40 90,0"
         id="path821" />
    </g>
    <g
       id="group842">
      <path
         d="m 256.5,360 90,0"
         id="path842" />
    </g>
  </g>
  <g
     id="text"
     style="font-size:15.19999981px;fill:#000000;font-family:'LMMono10, monospace'" />
</svg>
