<?xml version="1.0" encoding="UTF-8" standalone="no"?>
<!-- Created with Inkscape (http://www.inkscape.org/) -->

<svg
   xmlns:dc="http://purl.org/dc/elements/1.1/"
   xmlns:cc="http://creativecommons.org/ns#"
   xmlns:rdf="http://www.w3.org/1999/02/22-rdf-syntax-ns#"
   xmlns:svg="http://www.w3.org/2000/svg"
   xmlns="http://www.w3.org/2000/svg"
   version="1.1"
   width="432"
   height="448"
   id="svg2">
  <metadata
     id="metadata93">
    <rdf:RDF>
      <cc:Work
         rdf:about="">
        <dc:format>image/svg+xml</dc:format>
        <dc:type
           rdf:resource="http://purl.org/dc/dcmitype/StillImage" />
        <dc:title></dc:title>
      </cc:Work>
    </rdf:RDF>
  </metadata>
  <defs
     id="defs4">
    <filter
       width="1.5"
       height="1.5"
       color-interpolation-filters="sRGB"
       id="dsFilter">
      <feOffset
         result="offOut"
         in="SourceGraphic"
         dx="3"
         dy="3"
         id="feOffset7" />
      <feColorMatrix
         result="matrixOut"
         in="offOut"
         type="matrix"
         values="0.2 0 0 0 0 0 0.2 0 0 0 0 0 0.2 0 0 0 0 0 1 0"
         id="feColorMatrix9" />
      <feBlend
         in2="matrixOut"
         mode="normal"
         in="SourceGraphic"
         id="feBlend11" />
    </filter>
    <marker
       markerUnits="strokeWidth"
       refX="5"
       refY="5"
       markerWidth="8"
       markerHeight="7"
       orient="auto"
       viewBox="0 0 10 10"
       id="iPointer">
      <path
         d="M 10,0 10,10 0,5 z"
         id="path14" />
    </marker>
    <marker
       markerUnits="strokeWidth"
       refX="5"
       refY="5"
       markerWidth="8"
       markerHeight="7"
       orient="auto"
       viewBox="0 0 10 10"
       id="Pointer">
      <path
         d="M 0,0 10,5 0,10 z"
         id="path17" />
    </marker>
  </defs>
  <g
     id="boxes"
     style="fill:none;stroke:#000000;stroke-width:2">
    <g
       id="group0">
      <path
         d="m 4.5,8 117,0 0,54 q 0,10 -10,10 l -97,0 q -10,0 -10,-10 z"
         id="path0"
         style="fill:#ffffff;filter:url(#dsFilter)" />
      <text
         x="10.388478"
         y="28.799999"
         id="text0"
         style="font-size:15.19999981px;fill:#000000;stroke:none;font-family:'LMMono10, monospace'">パブリッシャー</text>
      <text
         x="44.099998"
         y="60.799999"
         id="text23"
         style="font-size:15.19999981px;fill:#000000;stroke:none;font-family:'LMMono10, monospace'">PUB</text>
    </g>
    <g
       id="group2">
      <path
         d="m 157.5,8 117,0 0,54 q 0,10 -10,10 l -97,0 q -10,0 -10,-10 z"
         id="path2"
         style="fill:#ffffff;filter:url(#dsFilter)" />
      <text
         x="164.05963"
         y="30.128847"
         id="text2"
         style="font-size:15.19999981px;fill:#000000;stroke:none;font-family:'LMMono10, monospace'">パブリッシャー</text>
      <text
         x="197.10001"
         y="60.799999"
         id="text28"
         style="font-size:15.19999981px;fill:#000000;stroke:none;font-family:'LMMono10, monospace'">PUB</text>
    </g>
    <g
       id="group4">
      <path
         d="m 310.5,8 117,0 0,54 q 0,10 -10,10 l -97,0 q -10,0 -10,-10 z"
         id="path4"
         style="fill:#ffffff;filter:url(#dsFilter)" />
      <text
         x="317.7308"
         y="29.471151"
         id="text4"
         style="font-size:15.19999981px;fill:#000000;stroke:none;font-family:'LMMono10, monospace'">パブリッシャー</text>
      <text
         x="350.10001"
         y="60.799999"
         id="text33"
         style="font-size:15.19999981px;fill:#000000;stroke:none;font-family:'LMMono10, monospace'">PUB</text>
    </g>
    <g
       id="group21">
      <path
         d="m 157.5,178 q 0,-10 10,-10 l 97,0 q 10,0 10,10 l 0,76 q 0,10 -10,10 l -97,0 q -10,0 -10,-10 z"
         id="path21"
         style="fill:#ffffff;filter:url(#dsFilter)" />
      <text
         x="197.10001"
         y="188.8"
         id="text21"
         style="font-size:15.19999981px;fill:#000000;stroke:none;font-family:'LMMono10, monospace'">XSUB</text>
      <text
         x="182.10001"
         y="220.8"
         id="text38"
         style="font-size:15.19999981px;fill:#000000;stroke:none;font-family:'LMMono10, monospace'">プロキシー</text>
      <text
         x="197.10001"
         y="252.8"
         id="text40"
         style="font-size:15.19999981px;fill:#000000;stroke:none;font-family:'LMMono10, monospace'">XPUB</text>
    </g>
    <g
       id="group32">
      <path
         d="m 4.5,370 q 0,-10 10,-10 l 97,0 q 10,0 10,10 l 0,54 -117,0 z"
         id="path32"
         style="fill:#ffffff;filter:url(#dsFilter)" />
      <text
         x="44.099998"
         y="380.79999"
         id="text32"
         style="font-size:15.19999981px;fill:#000000;stroke:none;font-family:'LMMono10, monospace'">SUB</text>
      <text
         x="7.7038693"
         y="413.47113"
         id="text45"
         style="font-size:14px;fill:#000000;stroke:none;font-family:'LMMono10, monospace'">サブスクライバー</text>
    </g>
    <g
       id="group34">
      <path
         d="m 157.5,370 q 0,-10 10,-10 l 97,0 q 10,0 10,10 l 0,54 -117,0 z"
         id="path34"
         style="fill:#ffffff;filter:url(#dsFilter)" />
      <text
         x="197.10001"
         y="380.79999"
         id="text34"
         style="font-size:15.19999981px;fill:#000000;stroke:none;font-family:'LMMono10, monospace'">SUB</text>
      <text
         x="160.70387"
         y="412.79999"
         id="text50"
         style="font-size:14px;fill:#000000;stroke:none;font-family:'LMMono10, monospace'">サブスクライバー</text>
    </g>
    <g
       id="group36">
      <path
         d="m 310.5,370 q 0,-10 10,-10 l 97,0 q 10,0 10,10 l 0,54 -117,0 z"
         id="path36"
         style="fill:#ffffff;filter:url(#dsFilter)" />
      <text
         x="350.10001"
         y="380.79999"
         id="text36"
         style="font-size:15.19999981px;fill:#000000;stroke:none;font-family:'LMMono10, monospace'">SUB</text>
      <text
         x="314.37503"
         y="413.47113"
         id="text55"
         style="font-size:14px;fill:#000000;stroke:none;font-family:'LMMono10, monospace'">サブスクライバー</text>
    </g>
  </g>
  <g
     id="lines"
     style="fill:none;stroke:#000000;stroke-width:2">
    <g
       id="group52">
      <path
         d="m 4.5,40 117,0"
         id="path52" />
    </g>
    <g
       id="group75">
      <path
         d="m 4.5,392 117,0"
         id="path75" />
    </g>
    <g
       id="group226">
      <path
         d="m 58.5,104 0,6 c 0,6.66667 3.333333,10 10,10 l 143,0 143,0 c 6.66667,0 10,-3.33333 10,-10 l 0,-8.57696"
         id="path226" />
    </g>
    <g
       id="group240">
      <path
         d="m 58.5,328 0,-6 c 0,-6.66667 3.333333,-10 10,-10 l 143,0 143,0 c 6.66667,0 10,3.33333 10,10 l 0,9.91926"
         id="path240" />
    </g>
    <g
       id="group530">
      <path
         d="m 157.5,40 117,0"
         id="path530" />
    </g>
    <g
       id="group541">
      <path
         d="m 157.5,200 117,0"
         id="path541" />
    </g>
    <g
       id="group544">
      <path
         d="m 157.5,232 117,0"
         id="path544" />
    </g>
    <g
       id="group555">
      <path
         d="m 157.5,392 117,0"
         id="path555" />
    </g>
    <g
       transform="matrix(1,0,0,0.83556771,0,17.100958)"
       id="group706">
      <path
         d="m 211.5,104 0,16 0,32"
         id="path706" />
    </g>
    <g
       id="group718">
      <path
         d="m 211.5,296 0,10.73817 0,21.47633"
         id="path718"
         style="stroke-width:1.63845706" />
    </g>
    <g
       id="group1010">
      <path
         d="m 310.5,40 117,0"
         id="path1010" />
    </g>
    <g
       id="group1033">
      <path
         d="m 310.5,392 117,0"
         id="path1033" />
    </g>
  </g>
  <g
     id="text"
     style="font-size:15.19999981px;fill:#000000;font-family:'LMMono10, monospace'">
    <text
       x="42.207653"
       y="92.128853"
       id="text6"
       style="fill:#000000">接続</text>
    <text
       x="196.54996"
       y="92.800003"
       id="text7"
       style="fill:#000000">接続</text>
    <text
       x="348.20764"
       y="92.128853"
       id="text8"
       style="fill:#000000">接続</text>
    <text
       x="197.10001"
       y="156.8"
       id="text9"
       style="fill:#000000">bind</text>
    <text
       x="197.10001"
       y="284.79999"
       id="text13"
       style="fill:#000000">bind</text>
    <text
       x="43.549957"
       y="348.12885"
       id="text14"
       style="fill:#000000">接続</text>
    <text
       x="196.82498"
       y="348.12885"
       id="text15"
       style="fill:#000000">接続</text>
    <text
       x="351.1673"
       y="348.79999"
       id="text16"
       style="fill:#000000">接続</text>
  </g>
</svg>
