<?xml version="1.0" encoding="UTF-8" standalone="no"?>
<!-- Created with Inkscape (http://www.inkscape.org/) -->

<svg
   xmlns:dc="http://purl.org/dc/elements/1.1/"
   xmlns:cc="http://creativecommons.org/ns#"
   xmlns:rdf="http://www.w3.org/1999/02/22-rdf-syntax-ns#"
   xmlns:svg="http://www.w3.org/2000/svg"
   xmlns="http://www.w3.org/2000/svg"
   version="1.1"
   width="396"
   height="512"
   id="svg2">
  <metadata
     id="metadata88">
    <rdf:RDF>
      <cc:Work
         rdf:about="">
        <dc:format>image/svg+xml</dc:format>
        <dc:type
           rdf:resource="http://purl.org/dc/dcmitype/StillImage" />
        <dc:title></dc:title>
      </cc:Work>
    </rdf:RDF>
  </metadata>
  <defs
     id="defs4">
    <filter
       width="1.5"
       height="1.5"
       color-interpolation-filters="sRGB"
       id="dsFilter">
      <feOffset
         id="feOffset7"
         dy="3"
         dx="3"
         in="SourceGraphic"
         result="offOut" />
      <feColorMatrix
         id="feColorMatrix9"
         values="0.2 0 0 0 0 0 0.2 0 0 0 0 0 0.2 0 0 0 0 0 1 0"
         type="matrix"
         in="offOut"
         result="matrixOut" />
      <feBlend
         in2="matrixOut"
         mode="normal"
         in="SourceGraphic"
         id="feBlend11" />
    </filter>
    <marker
       markerUnits="strokeWidth"
       refX="5"
       refY="5"
       markerWidth="8"
       markerHeight="7"
       orient="auto"
       viewBox="0 0 10 10"
       id="iPointer">
      <path
         d="M 10,0 10,10 0,5 z"
         id="path14" />
    </marker>
    <marker
       markerUnits="strokeWidth"
       refX="5"
       refY="5"
       markerWidth="8"
       markerHeight="7"
       orient="auto"
       viewBox="0 0 10 10"
       id="Pointer">
      <path
         d="M 0,0 10,5 0,10 z"
         id="path17" />
    </marker>
  </defs>
  <g
     id="boxes"
     style="fill:none;stroke:#000000;stroke-width:2">
    <g
       id="group0">
      <path
         d="m 139.5,8 117,0 0,54 q 0,10 -10,10 l -97,0 q -10,0 -10,-10 z"
         id="path0"
         style="fill:#ffffff;filter:url(#dsFilter)" />
      <text
         x="154.10001"
         y="28.799999"
         id="text0"
         style="font-size:15.19999981px;fill:#000000;stroke:none;font-family:'LMMono10, monospace'">クライアント</text>
      <text
         x="179.10001"
         y="60.799999"
         id="text23"
         style="font-size:15.19999981px;fill:#000000;stroke:none;font-family:'LMMono10, monospace'">REQ</text>
    </g>
    <g
       id="group9">
      <path
         d="m 139.5,178 q 0,-10 10,-10 l 97,0 q 10,0 10,10 l 0,124 q 0,10 -10,10 l -97,0 q -10,0 -10,-10 z"
         id="path9"
         style="fill:#ffffff;filter:url(#dsFilter)" />
      <text
         x="170.10001"
         y="188.8"
         id="text9"
         style="font-size:15.19999981px;fill:#000000;stroke:none;font-family:'LMMono10, monospace'">ROUTER</text>
      <text
         x="170.10001"
         y="220.8"
         id="text28"
         style="font-size:15.19999981px;fill:#000000;stroke:none;font-family:'LMMono10, monospace'">サーバー</text>
      <text
         x="142.10001"
         y="258.79999"
         id="text30"
         style="font-size:15.19999981px;fill:#000000;stroke:none;font-family:'LMMono10, monospace'">
        <tspan
           id="tspan3078"
           style="font-size:14px">キュープロキシー</tspan>
      </text>
      <text
         x="146.10001"
         y="256.79999"
         id="text3076"
         style="font-size:15.19999981px;fill:#000000;stroke:none;font-family:'LMMono10, monospace'" />
      <text
         x="170.10001"
         y="300.79999"
         id="text34"
         style="font-size:15.19999981px;fill:#000000;stroke:none;font-family:'LMMono10, monospace'">DEALER</text>
    </g>
    <g
       id="group23">
      <path
         d="m 49.5,418 q 0,-10 10,-10 l 61,0 q 10,0 10,10 l 0,54 -81,0 z"
         id="path23"
         style="fill:#ffffff;filter:url(#dsFilter)" />
      <text
         x="71.099998"
         y="428.79999"
         id="text38"
         style="font-size:15.19999981px;fill:#000000;stroke:none;font-family:'LMMono10, monospace'">REP</text>
      <text
         x="62.099998"
         y="460.79999"
         id="text40"
         style="font-size:15.19999981px;fill:#000000;stroke:none;font-family:'LMMono10, monospace'">ワーカー</text>
    </g>
    <g
       id="group25">
      <path
         d="m 157.5,418 q 0,-10 10,-10 l 61,0 q 10,0 10,10 l 0,54 -81,0 z"
         id="path25"
         style="fill:#ffffff;filter:url(#dsFilter)" />
      <text
         x="179.10001"
         y="428.79999"
         id="text25"
         style="font-size:15.19999981px;fill:#000000;stroke:none;font-family:'LMMono10, monospace'">REP</text>
      <text
         x="170.10001"
         y="460.79999"
         id="text45"
         style="font-size:15.19999981px;fill:#000000;stroke:none;font-family:'LMMono10, monospace'">ワーカー</text>
    </g>
    <g
       id="group27">
      <path
         d="m 265.5,418 q 0,-10 10,-10 l 61,0 q 10,0 10,10 l 0,54 -81,0 z"
         id="path27"
         style="fill:#ffffff;filter:url(#dsFilter)" />
      <text
         x="287.10001"
         y="428.79999"
         id="text27"
         style="font-size:15.19999981px;fill:#000000;stroke:none;font-family:'LMMono10, monospace'">REP</text>
      <text
         x="278.10001"
         y="460.79999"
         id="text50"
         style="font-size:15.19999981px;fill:#000000;stroke:none;font-family:'LMMono10, monospace'">ワーカー</text>
    </g>
  </g>
  <g
     id="lines"
     style="fill:none;stroke:#000000;stroke-width:2">
    <g
       id="group230">
      <path
         d="m 49.5,440 81,0"
         id="path230" />
    </g>
    <g
       id="group356">
      <path
         d="m 85.5,392 0,-22 q 0,-10 10,-10 l 98,0 98,0 q 10,0 10,10 l 0,22"
         id="path356"
         style="marker-start:url(#iPointer);marker-end:url(#Pointer)" />
    </g>
    <g
       id="group526">
      <path
         d="m 139.5,40 117,0"
         id="path526" />
    </g>
    <g
       id="group537">
      <path
         d="m 139.5,200 117,0"
         id="path537" />
    </g>
    <g
       id="group540">
      <path
         d="m 139.5,232 117,0"
         id="path540" />
    </g>
    <g
       id="group544">
      <path
         d="m 139.5,280 117,0"
         id="path544" />
    </g>
    <g
       id="group600">
      <path
         d="m 157.5,136 -143,0 q -10,0 -10,10 l 0,332 q 0,10 10,10 l 367,0 q 10,0 10,-10 l 0,-332 q 0,-10 -10,-10 l -152,0"
         id="path600"
         style="stroke-dasharray:5, 5" />
    </g>
    <g
       id="group619">
      <path
         d="m 157.5,440 81,0"
         id="path619" />
    </g>
    <g
       id="group661">
      <path
         d="m 175.5,72 0,48 0,32"
         id="path661"
         style="marker-end:url(#Pointer)" />
      <circle
         cx="175.5"
         cy="120"
         r="3"
         id="circle71"
         style="fill:#000000" />
    </g>
    <g
       id="group730">
      <path
         d="m 193.5,136 18,0"
         id="path730"
         style="stroke-dasharray:5, 5" />
    </g>
    <g
       id="group742">
      <path
         d="m 193.5,328 0,32 0,32"
         id="path742"
         style="marker-start:url(#iPointer);marker-end:url(#Pointer)" />
    </g>
    <g
       id="group823">
      <path
         d="m 220.5,88 0,32"
         id="path823"
         style="marker-start:url(#iPointer)" />
    </g>
    <g
       id="group826">
      <path
         d="m 220.5,136 0,32"
         id="path826" />
    </g>
    <g
       id="group1005">
      <path
         d="m 265.5,440 81,0"
         id="path1005" />
    </g>
  </g>
  <g
     id="text"
     style="font-size:15.19999981px;fill:#000000;font-family:'LMMono10, monospace'">
    <text
       x="125.1"
       y="124.8"
       id="text2"
       style="fill:#000000">&quot;Hell &quot;</text>
    <text
       x="206.10001"
       y="124.8"
       id="text3"
       style="fill:#000000">&quot;World&quot;</text>
  </g>
</svg>
