<?xml version="1.0" encoding="UTF-8" standalone="no"?>
<!-- Created with Inkscape (http://www.inkscape.org/) -->

<svg
   xmlns:dc="http://purl.org/dc/elements/1.1/"
   xmlns:cc="http://creativecommons.org/ns#"
   xmlns:rdf="http://www.w3.org/1999/02/22-rdf-syntax-ns#"
   xmlns:svg="http://www.w3.org/2000/svg"
   xmlns="http://www.w3.org/2000/svg"
   version="1.1"
   width="360"
   height="480"
   id="svg2">
  <metadata
     id="metadata88">
    <rdf:RDF>
      <cc:Work
         rdf:about="">
        <dc:format>image/svg+xml</dc:format>
        <dc:type
           rdf:resource="http://purl.org/dc/dcmitype/StillImage" />
        <dc:title></dc:title>
      </cc:Work>
    </rdf:RDF>
  </metadata>
  <defs
     id="defs4">
    <filter
       width="1.5"
       height="1.5"
       color-interpolation-filters="sRGB"
       id="dsFilter">
      <feOffset
         id="feOffset7"
         dy="3"
         dx="3"
         in="SourceGraphic"
         result="offOut" />
      <feColorMatrix
         id="feColorMatrix9"
         values="0.2 0 0 0 0 0 0.2 0 0 0 0 0 0.2 0 0 0 0 0 1 0"
         type="matrix"
         in="offOut"
         result="matrixOut" />
      <feBlend
         in2="matrixOut"
         mode="normal"
         in="SourceGraphic"
         id="feBlend11" />
    </filter>
    <marker
       markerUnits="strokeWidth"
       refX="5"
       refY="5"
       markerWidth="8"
       markerHeight="7"
       orient="auto"
       viewBox="0 0 10 10"
       id="iPointer">
      <path
         d="M 10,0 10,10 0,5 z"
         id="path14" />
    </marker>
    <marker
       markerUnits="strokeWidth"
       refX="5"
       refY="5"
       markerWidth="8"
       markerHeight="7"
       orient="auto"
       viewBox="0 0 10 10"
       id="Pointer">
      <path
         d="M 0,0 10,5 0,10 z"
         id="path17" />
    </marker>
  </defs>
  <g
     id="boxes"
     style="fill:none;stroke:#000000;stroke-width:2">
    <g
       id="group0">
      <path
         d="m 112.5,8 126,0 0,54 q 0,10 -10,10 l -106,0 q -10,0 -10,-10 z"
         id="path0"
         style="fill:#ffffff;filter:url(#dsFilter)" />
      <text
         x="124.94746"
         y="29.816948"
         id="text0"
         style="font-size:15.19999981px;fill:#000000;stroke:none;font-family:'LMMono10, monospace'">ベンチレーター</text>
      <text
         x="152.10001"
         y="60.799999"
         id="text23"
         style="font-size:15.19999981px;fill:#000000;stroke:none;font-family:'LMMono10, monospace'">PUSH</text>
    </g>
    <g
       id="group10">
      <path
         d="m 4.5,194 q 0,-10 10,-10 l 79,0 q 10,0 10,10 l 0,76 q 0,10 -10,10 l -79,0 q -10,0 -10,-10 z"
         id="path10"
         style="fill:#ffffff;filter:url(#dsFilter)" />
      <text
         x="35.099998"
         y="204.8"
         id="text10"
         style="font-size:15.19999981px;fill:#000000;stroke:none;font-family:'LMMono10, monospace'">PULL</text>
      <text
         x="26.1"
         y="236.8"
         id="text28"
         style="font-size:15.19999981px;fill:#000000;stroke:none;font-family:'LMMono10, monospace'">ワーカー</text>
      <text
         x="35.099998"
         y="268.79999"
         id="text30"
         style="font-size:15.19999981px;fill:#000000;stroke:none;font-family:'LMMono10, monospace'">PUSH</text>
    </g>
    <g
       id="group12">
      <path
         d="m 130.5,194 q 0,-10 10,-10 l 79,0 q 10,0 10,10 l 0,76 q 0,10 -10,10 l -79,0 q -10,0 -10,-10 z"
         id="path12"
         style="fill:#ffffff;filter:url(#dsFilter)" />
      <text
         x="161.10001"
         y="204.8"
         id="text12"
         style="font-size:15.19999981px;fill:#000000;stroke:none;font-family:'LMMono10, monospace'">PULL</text>
      <text
         x="152.10001"
         y="236.8"
         id="text35"
         style="font-size:15.19999981px;fill:#000000;stroke:none;font-family:'LMMono10, monospace'">ワーカー</text>
      <text
         x="161.10001"
         y="268.79999"
         id="text37"
         style="font-size:15.19999981px;fill:#000000;stroke:none;font-family:'LMMono10, monospace'">PUSH</text>
    </g>
    <g
       id="group14">
      <path
         d="m 256.5,194 q 0,-10 10,-10 l 79,0 q 10,0 10,10 l 0,76 q 0,10 -10,10 l -79,0 q -10,0 -10,-10 z"
         id="path40"
         style="fill:#ffffff;filter:url(#dsFilter)" />
      <text
         x="287.10001"
         y="204.8"
         id="text14"
         style="font-size:15.19999981px;fill:#000000;stroke:none;font-family:'LMMono10, monospace'">PULL</text>
      <text
         x="278.10001"
         y="236.8"
         id="text43"
         style="font-size:15.19999981px;fill:#000000;stroke:none;font-family:'LMMono10, monospace'">ワーカー</text>
      <text
         x="287.10001"
         y="268.79999"
         id="text45"
         style="font-size:15.19999981px;fill:#000000;stroke:none;font-family:'LMMono10, monospace'">PUSH</text>
    </g>
    <g
       id="group40">
      <path
         d="m 112.5,402 q 0,-10 10,-10 l 106,0 q 10,0 10,10 l 0,54 -126,0 z"
         id="path48"
         style="fill:#ffffff;filter:url(#dsFilter)" />
      <text
         x="152.10001"
         y="412.79999"
         id="text40"
         style="font-size:15.19999981px;fill:#000000;stroke:none;font-family:'LMMono10, monospace'">PULL</text>
      <text
         x="152.10001"
         y="444.79999"
         id="text51"
         style="font-size:15.19999981px;fill:#000000;stroke:none;font-family:'LMMono10, monospace'">シンク</text>
    </g>
  </g>
  <g
     id="lines"
     style="fill:none;stroke:#000000;stroke-width:2">
    <g
       id="group59">
      <path
         d="m 4.5,216 99,0"
         id="path59" />
    </g>
    <g
       id="group62">
      <path
         d="m 4.5,248 99,0"
         id="path62" />
    </g>
    <g
       id="group238">
      <path
         d="m 58.5,168 0,-22 q 0,-10 10,-10 l 107,0 116,0 q 10,0 10,10 l 0,22"
         id="path238"
         style="marker-start:url(#iPointer);marker-end:url(#Pointer)" />
    </g>
    <g
       id="group246">
      <path
         d="m 58.5,296 0,6 q 0,10 10,10 l 107,0 116,0 q 10,0 10,-10 l 0,-22"
         id="path246" />
    </g>
    <g
       id="group410">
      <path
         d="m 112.5,40 126,0"
         id="path410" />
    </g>
    <g
       id="group435">
      <path
         d="m 112.5,424 126,0"
         id="path435" />
    </g>
    <g
       id="group483">
      <path
         d="m 130.5,216 99,0"
         id="path483" />
    </g>
    <g
       id="group486">
      <path
         d="m 130.5,248 99,0"
         id="path486" />
    </g>
    <g
       id="group626">
      <path
         d="m 175.5,72 0,32"
         id="path626" />
    </g>
    <g
       id="group630">
      <path
         d="m 175.5,120 0,16 0,32"
         id="path630"
         style="marker-end:url(#Pointer)" />
    </g>
    <g
       id="group640">
      <path
         d="m 175.5,280 0,32 0,32"
         id="path640" />
    </g>
    <g
       id="group647">
      <path
         d="m 175.5,376 0,-32"
         id="path647"
         style="marker-start:url(#iPointer)" />
    </g>
    <g
       id="group907">
      <path
         d="m 256.5,216 99,0"
         id="path907" />
    </g>
    <g
       id="group910">
      <path
         d="m 256.5,248 99,0"
         id="path910" />
    </g>
  </g>
  <g
     id="text"
     style="font-size:15.19999981px;fill:#000000;font-family:'LMMono10, monospace'">
    <text
       x="153.62543"
       y="116.93559"
       id="text2"
       style="fill:#000000">タスク</text>
    <text
       x="160.38814"
       y="350.32541"
       id="text84"
       style="fill:#000000">結果</text>
  </g>
</svg>
